<svg xmlns="http://www.w3.org/2000/svg" viewBox="0 0 260 72" fill="none">
  <!-- Cloud + Brain/Circuit Icon -->
  <g transform="translate(4, 8)">
    <!-- Cloud shape -->
    <path d="M44 48H16C9.37 48 4 42.63 4 36C4 30.12 8.16 25.22 13.76 24.18C13.27 22.84 13 21.45 13 20C13 13.37 18.37 8 25 8C28.73 8 32.07 9.64 34.38 12.24C35.84 11.44 37.5 11 39.3 11C44.97 11 49.6 15.25 50.1 20.86C50.4 20.96 50.71 21.07 51 21.2C54.47 22.69 57 26.18 57 30.27V30.5C57 39.61 49.94 47 41.01 47.97L44 48Z" fill="#1565C0" opacity="0.15"/>
    <path d="M44 47H16C9.93 47 5 42.07 5 36C5 30.5 8.88 25.89 14.14 24.98C13.72 23.73 13.5 22.4 13.5 21C13.5 14.65 18.65 9.5 25 9.5C28.42 9.5 31.5 11 33.76 13.35C35.38 12.5 37.27 12 39.3 12C44.52 12 48.73 15.87 49.5 20.9C49.65 20.93 49.8 20.96 49.95 21C53.47 22.15 56 25.48 56 29.5C56 38.05 49.26 45 40.5 45.95" stroke="#1565C0" stroke-width="2.2" stroke-linecap="round" stroke-linejoin="round" fill="none"/>
    <!-- Brain/circuit pattern inside cloud -->
    <!-- Circuit lines -->
    <line x1="17" y1="30" x2="22" y2="30" stroke="#1565C0" stroke-width="1.5" stroke-linecap="round"/>
    <line x1="29" y1="30" x2="34" y2="30" stroke="#1565C0" stroke-width="1.5" stroke-linecap="round"/>
    <line x1="41" y1="30" x2="46" y2="30" stroke="#1565C0" stroke-width="1.5" stroke-linecap="round"/>
    <line x1="22" y1="24" x2="22" y2="36" stroke="#1565C0" stroke-width="1.5" stroke-linecap="round"/>
    <line x1="34" y1="22" x2="34" y2="38" stroke="#1565C0" stroke-width="1.5" stroke-linecap="round"/>
    <line x1="41" y1="25" x2="41" y2="35" stroke="#1565C0" stroke-width="1.5" stroke-linecap="round"/>
    <!-- Node dots -->
    <circle cx="22" cy="24" r="2.2" fill="#1565C0"/>
    <circle cx="22" cy="36" r="2.2" fill="#1565C0"/>
    <circle cx="34" cy="22" r="2.2" fill="#1565C0"/>
    <circle cx="34" cy="38" r="2.2" fill="#1565C0"/>
    <circle cx="41" cy="25" r="2.2" fill="#1565C0"/>
    <circle cx="41" cy="35" r="2.2" fill="#1565C0"/>
    <!-- Connection lines between nodes -->
    <line x1="22" y1="24" x2="34" y2="22" stroke="#1565C0" stroke-width="1.2" stroke-linecap="round" opacity="0.7"/>
    <line x1="34" y1="22" x2="41" y2="25" stroke="#1565C0" stroke-width="1.2" stroke-linecap="round" opacity="0.7"/>
    <line x1="22" y1="36" x2="34" y2="38" stroke="#1565C0" stroke-width="1.2" stroke-linecap="round" opacity="0.7"/>
    <line x1="34" y1="38" x2="41" y2="35" stroke="#1565C0" stroke-width="1.2" stroke-linecap="round" opacity="0.7"/>
    <line x1="22" y1="30" x2="17" y2="30" stroke="#1565C0" stroke-width="1.2" stroke-linecap="round" opacity="0.7"/>
  </g>
  <!-- "aasmaa" text -->
  <text x="72" y="38" font-family="'Segoe UI', Roboto, Helvetica, Arial, sans-serif" font-size="26" font-weight="700" fill="#1565C0" letter-spacing="-0.5">aasmaa</text>
  <!-- "AUTONOMOUS INTELLIGENCE" subtitle -->
  <text x="73" y="53" font-family="'Segoe UI', Roboto, Helvetica, Arial, sans-serif" font-size="8.5" font-weight="400" fill="#1565C0" letter-spacing="2.5" opacity="0.8">AUTONOMOUS INTELLIGENCE</text>
</svg>
